<svg id="visual" viewBox="0 0 900 250" width="900" height="250" xmlns="http://www.w3.org/2000/svg" xmlns:xlink="http://www.w3.org/1999/xlink" version="1.1"><path d="M0 36L10.7 35.7C21.3 35.3 42.7 34.7 64.2 35.2C85.7 35.7 107.3 37.3 128.8 34.8C150.3 32.3 171.7 25.7 193 23.5C214.3 21.3 235.7 23.7 257 21.5C278.3 19.3 299.7 12.7 321.2 14.8C342.7 17 364.3 28 385.8 31.8C407.3 35.7 428.7 32.3 450 30.2C471.3 28 492.7 27 514.2 28.2C535.7 29.3 557.3 32.7 578.8 32.3C600.3 32 621.7 28 643 24.3C664.3 20.7 685.7 17.3 707 16C728.3 14.7 749.7 15.3 771.2 14.8C792.7 14.3 814.3 12.7 835.8 16.8C857.3 21 878.7 31 889.3 36L900 41L900 0L889.3 0C878.7 0 857.3 0 835.8 0C814.3 0 792.7 0 771.2 0C749.7 0 728.3 0 707 0C685.7 0 664.3 0 643 0C621.7 0 600.3 0 578.8 0C557.3 0 535.7 0 514.2 0C492.7 0 471.3 0 450 0C428.7 0 407.3 0 385.8 0C364.3 0 342.7 0 321.2 0C299.7 0 278.3 0 257 0C235.7 0 214.3 0 193 0C171.7 0 150.3 0 128.8 0C107.3 0 85.7 0 64.2 0C42.7 0 21.3 0 10.7 0L0 0Z" fill="#ffffff"></path><path d="M0 51L10.7 49.8C21.3 48.7 42.7 46.3 64.2 46.8C85.7 47.3 107.3 50.7 128.8 48.5C150.3 46.3 171.7 38.7 193 34.8C214.3 31 235.7 31 257 30.2C278.3 29.3 299.7 27.7 321.2 29.3C342.7 31 364.3 36 385.8 41C407.3 46 428.7 51 450 51C471.3 51 492.7 46 514.2 48.2C535.7 50.3 557.3 59.7 578.8 58.5C600.3 57.3 621.7 45.7 643 39.3C664.3 33 685.7 32 707 34.5C728.3 37 749.7 43 771.2 42.2C792.7 41.3 814.3 33.7 835.8 34C857.3 34.3 878.7 42.7 889.3 46.8L900 51L900 39L889.3 34C878.7 29 857.3 19 835.8 14.8C814.3 10.7 792.7 12.3 771.2 12.8C749.7 13.3 728.3 12.7 707 14C685.7 15.3 664.3 18.7 643 22.3C621.7 26 600.3 30 578.8 30.3C557.3 30.7 535.7 27.3 514.2 26.2C492.7 25 471.3 26 450 28.2C428.7 30.3 407.3 33.7 385.8 29.8C364.3 26 342.7 15 321.2 12.8C299.7 10.7 278.3 17.3 257 19.5C235.7 21.7 214.3 19.3 193 21.5C171.7 23.7 150.3 30.3 128.8 32.8C107.3 35.3 85.7 33.7 64.2 33.2C42.7 32.7 21.3 33.3 10.7 33.7L0 34Z" fill="#f9fbfe"></path><path d="M0 91L10.7 89.8C21.3 88.7 42.7 86.3 64.2 88.8C85.7 91.3 107.3 98.7 128.8 95.3C150.3 92 171.7 78 193 72.7C214.3 67.3 235.7 70.7 257 67.3C278.3 64 299.7 54 321.2 53.2C342.7 52.3 364.3 60.7 385.8 70.7C407.3 80.7 428.7 92.3 450 90.7C471.3 89 492.7 74 514.2 73.2C535.7 72.3 557.3 85.7 578.8 89.8C600.3 94 621.7 89 643 88.2C664.3 87.3 685.7 90.7 707 94C728.3 97.3 749.7 100.7 771.2 94.8C792.7 89 814.3 74 835.8 72.7C857.3 71.3 878.7 83.7 889.3 89.8L900 96L900 49L889.3 44.8C878.7 40.7 857.3 32.3 835.8 32C814.3 31.7 792.7 39.3 771.2 40.2C749.7 41 728.3 35 707 32.5C685.7 30 664.3 31 643 37.3C621.7 43.7 600.3 55.3 578.8 56.5C557.3 57.7 535.7 48.3 514.2 46.2C492.7 44 471.3 49 450 49C428.7 49 407.3 44 385.8 39C364.3 34 342.7 29 321.2 27.3C299.7 25.7 278.3 27.3 257 28.2C235.7 29 214.3 29 193 32.8C171.7 36.7 150.3 44.3 128.8 46.5C107.3 48.7 85.7 45.3 64.2 44.8C42.7 44.3 21.3 46.7 10.7 47.8L0 49Z" fill="#f4f6fc"></path><path d="M0 106L10.7 114.3C21.3 122.7 42.7 139.3 64.2 144.3C85.7 149.3 107.3 142.7 128.8 133.5C150.3 124.3 171.7 112.7 193 120.2C214.3 127.7 235.7 154.3 257 166C278.3 177.7 299.7 174.3 321.2 162.3C342.7 150.3 364.3 129.7 385.8 124.7C407.3 119.7 428.7 130.3 450 142.8C471.3 155.3 492.7 169.7 514.2 178.8C535.7 188 557.3 192 578.8 187.8C600.3 183.7 621.7 171.3 643 168.5C664.3 165.7 685.7 172.3 707 170.7C728.3 169 749.7 159 771.2 146.5C792.7 134 814.3 119 835.8 113.2C857.3 107.3 878.7 110.7 889.3 112.3L900 114L900 94L889.3 87.8C878.7 81.7 857.3 69.3 835.8 70.7C814.3 72 792.7 87 771.2 92.8C749.7 98.7 728.3 95.3 707 92C685.7 88.7 664.3 85.3 643 86.2C621.7 87 600.3 92 578.8 87.8C557.3 83.7 535.7 70.3 514.2 71.2C492.7 72 471.3 87 450 88.7C428.7 90.3 407.3 78.7 385.8 68.7C364.3 58.7 342.7 50.3 321.2 51.2C299.7 52 278.3 62 257 65.3C235.7 68.7 214.3 65.3 193 70.7C171.7 76 150.3 90 128.8 93.3C107.3 96.7 85.7 89.3 64.2 86.8C42.7 84.3 21.3 86.7 10.7 87.8L0 89Z" fill="#eff3fb"></path><path d="M0 159L10.7 161.5C21.3 164 42.7 169 64.2 172.7C85.7 176.3 107.3 178.7 128.8 182C150.3 185.3 171.7 189.7 193 193.8C214.3 198 235.7 202 257 201.2C278.3 200.3 299.7 194.7 321.2 192.7C342.7 190.7 364.3 192.3 385.8 189C407.3 185.7 428.7 177.3 450 178.2C471.3 179 492.7 189 514.2 196.8C535.7 204.7 557.3 210.3 578.8 211.2C600.3 212 621.7 208 643 203C664.3 198 685.7 192 707 194C728.3 196 749.7 206 771.2 202.7C792.7 199.3 814.3 182.7 835.8 178.2C857.3 173.7 878.7 181.3 889.3 185.2L900 189L900 112L889.3 110.3C878.7 108.7 857.3 105.3 835.8 111.2C814.3 117 792.7 132 771.2 144.5C749.7 157 728.3 167 707 168.7C685.7 170.3 664.3 163.7 643 166.5C621.7 169.3 600.3 181.7 578.8 185.8C557.3 190 535.7 186 514.2 176.8C492.7 167.7 471.3 153.3 450 140.8C428.7 128.3 407.3 117.7 385.8 122.7C364.3 127.7 342.7 148.3 321.2 160.3C299.7 172.3 278.3 175.7 257 164C235.7 152.3 214.3 125.7 193 118.2C171.7 110.7 150.3 122.3 128.8 131.5C107.3 140.7 85.7 147.3 64.2 142.3C42.7 137.3 21.3 120.7 10.7 112.3L0 104Z" fill="#eff3fb"></path><path d="M0 194L10.7 195.7C21.3 197.3 42.7 200.7 64.2 204.3C85.7 208 107.3 212 128.8 212.8C150.3 213.7 171.7 211.3 193 213C214.3 214.7 235.7 220.3 257 221.2C278.3 222 299.7 218 321.2 218.8C342.7 219.7 364.3 225.3 385.8 223.2C407.3 221 428.7 211 450 206.5C471.3 202 492.7 203 514.2 206C535.7 209 557.3 214 578.8 215.7C600.3 217.3 621.7 215.7 643 212.3C664.3 209 685.7 204 707 206.8C728.3 209.7 749.7 220.3 771.2 217C792.7 213.7 814.3 196.3 835.8 190.2C857.3 184 878.7 189 889.3 191.5L900 194L900 187L889.3 183.2C878.7 179.3 857.3 171.7 835.8 176.2C814.3 180.7 792.7 197.3 771.2 200.7C749.7 204 728.3 194 707 192C685.7 190 664.3 196 643 201C621.7 206 600.3 210 578.8 209.2C557.3 208.3 535.7 202.7 514.2 194.8C492.7 187 471.3 177 450 176.2C428.7 175.3 407.3 183.7 385.8 187C364.3 190.3 342.7 188.7 321.2 190.7C299.7 192.7 278.3 198.3 257 199.2C235.7 200 214.3 196 193 191.8C171.7 187.7 150.3 183.3 128.8 180C107.3 176.7 85.7 174.3 64.2 170.7C42.7 167 21.3 162 10.7 159.5L0 157Z" fill="#f4f6fc"></path><path d="M0 229L10.7 229.8C21.3 230.7 42.7 232.3 64.2 233.5C85.7 234.7 107.3 235.3 128.8 237.8C150.3 240.3 171.7 244.7 193 244.7C214.3 244.7 235.7 240.3 257 240.3C278.3 240.3 299.7 244.7 321.2 246.8C342.7 249 364.3 249 385.8 247.3C407.3 245.7 428.7 242.3 450 239C471.3 235.7 492.7 232.3 514.2 232.7C535.7 233 557.3 237 578.8 238.2C600.3 239.3 621.7 237.7 643 235.2C664.3 232.7 685.7 229.3 707 229.8C728.3 230.3 749.7 234.7 771.2 236C792.7 237.3 814.3 235.7 835.8 235.2C857.3 234.7 878.7 235.3 889.3 235.7L900 236L900 192L889.3 189.5C878.7 187 857.3 182 835.8 188.2C814.3 194.3 792.7 211.7 771.2 215C749.7 218.3 728.3 207.7 707 204.8C685.7 202 664.3 207 643 210.3C621.7 213.7 600.3 215.3 578.8 213.7C557.3 212 535.7 207 514.2 204C492.7 201 471.3 200 450 204.5C428.7 209 407.3 219 385.8 221.2C364.3 223.3 342.7 217.7 321.2 216.8C299.7 216 278.3 220 257 219.2C235.7 218.3 214.3 212.7 193 211C171.7 209.3 150.3 211.7 128.8 210.8C107.3 210 85.7 206 64.2 202.3C42.7 198.7 21.3 195.3 10.7 193.7L0 192Z" fill="#f9fbfe"></path><path d="M0 251L10.7 251C21.3 251 42.7 251 64.2 251C85.7 251 107.3 251 128.8 251C150.3 251 171.7 251 193 251C214.3 251 235.7 251 257 251C278.3 251 299.7 251 321.2 251C342.7 251 364.3 251 385.8 251C407.3 251 428.7 251 450 251C471.3 251 492.7 251 514.2 251C535.7 251 557.3 251 578.8 251C600.3 251 621.7 251 643 251C664.3 251 685.7 251 707 251C728.3 251 749.7 251 771.2 251C792.7 251 814.3 251 835.8 251C857.3 251 878.7 251 889.3 251L900 251L900 234L889.3 233.7C878.7 233.3 857.3 232.7 835.8 233.2C814.3 233.7 792.7 235.3 771.2 234C749.7 232.7 728.3 228.3 707 227.8C685.7 227.3 664.3 230.7 643 233.2C621.7 235.7 600.3 237.3 578.8 236.2C557.3 235 535.7 231 514.2 230.7C492.7 230.3 471.3 233.7 450 237C428.7 240.3 407.3 243.7 385.8 245.3C364.3 247 342.7 247 321.2 244.8C299.7 242.7 278.3 238.3 257 238.3C235.7 238.3 214.3 242.7 193 242.7C171.7 242.7 150.3 238.3 128.8 235.8C107.3 233.3 85.7 232.7 64.2 231.5C42.7 230.3 21.3 228.7 10.7 227.8L0 227Z" fill="#ffffff"></path></svg>