<svg id="visual" viewBox="0 0 900 250" width="900" height="250" xmlns="http://www.w3.org/2000/svg" xmlns:xlink="http://www.w3.org/1999/xlink" version="1.1"><path d="M0 71L10.7 72.7C21.3 74.3 42.7 77.7 64.2 75.2C85.7 72.7 107.3 64.3 128.8 54.3C150.3 44.3 171.7 32.7 193 39.3C214.3 46 235.7 71 257 76.8C278.3 82.7 299.7 69.3 321.2 57.7C342.7 46 364.3 36 385.8 38.2C407.3 40.3 428.7 54.7 450 61C471.3 67.3 492.7 65.7 514.2 59C535.7 52.3 557.3 40.7 578.8 35.7C600.3 30.7 621.7 32.3 643 36.8C664.3 41.3 685.7 48.7 707 53.2C728.3 57.7 749.7 59.3 771.2 57.3C792.7 55.3 814.3 49.7 835.8 51C857.3 52.3 878.7 60.7 889.3 64.8L900 69L900 0L889.3 0C878.7 0 857.3 0 835.8 0C814.3 0 792.7 0 771.2 0C749.7 0 728.3 0 707 0C685.7 0 664.3 0 643 0C621.7 0 600.3 0 578.8 0C557.3 0 535.7 0 514.2 0C492.7 0 471.3 0 450 0C428.7 0 407.3 0 385.8 0C364.3 0 342.7 0 321.2 0C299.7 0 278.3 0 257 0C235.7 0 214.3 0 193 0C171.7 0 150.3 0 128.8 0C107.3 0 85.7 0 64.2 0C42.7 0 21.3 0 10.7 0L0 0Z" fill="#ffffff"></path><path d="M0 111L10.7 112.7C21.3 114.3 42.7 117.7 64.2 114.8C85.7 112 107.3 103 128.8 88.5C150.3 74 171.7 54 193 57.3C214.3 60.7 235.7 87.3 257 94.3C278.3 101.3 299.7 88.7 321.2 79C342.7 69.3 364.3 62.7 385.8 63.2C407.3 63.7 428.7 71.3 450 78.5C471.3 85.7 492.7 92.3 514.2 90.7C535.7 89 557.3 79 578.8 72.3C600.3 65.7 621.7 62.3 643 64C664.3 65.7 685.7 72.3 707 76.5C728.3 80.7 749.7 82.3 771.2 82.3C792.7 82.3 814.3 80.7 835.8 84C857.3 87.3 878.7 95.7 889.3 99.8L900 104L900 67L889.3 62.8C878.7 58.7 857.3 50.3 835.8 49C814.3 47.7 792.7 53.3 771.2 55.3C749.7 57.3 728.3 55.7 707 51.2C685.7 46.7 664.3 39.3 643 34.8C621.7 30.3 600.3 28.7 578.8 33.7C557.3 38.7 535.7 50.3 514.2 57C492.7 63.7 471.3 65.3 450 59C428.7 52.7 407.3 38.3 385.8 36.2C364.3 34 342.7 44 321.2 55.7C299.7 67.3 278.3 80.7 257 74.8C235.7 69 214.3 44 193 37.3C171.7 30.7 150.3 42.3 128.8 52.3C107.3 62.3 85.7 70.7 64.2 73.2C42.7 75.7 21.3 72.3 10.7 70.7L0 69Z" fill="#f4f6fc"></path><path d="M0 126L10.7 129.8C21.3 133.7 42.7 141.3 64.2 143C85.7 144.7 107.3 140.3 128.8 130.3C150.3 120.3 171.7 104.7 193 103.8C214.3 103 235.7 117 257 123.2C278.3 129.3 299.7 127.7 321.2 122.3C342.7 117 364.3 108 385.8 103C407.3 98 428.7 97 450 100.3C471.3 103.7 492.7 111.3 514.2 110.2C535.7 109 557.3 99 578.8 91.8C600.3 84.7 621.7 80.3 643 87.3C664.3 94.3 685.7 112.7 707 123.2C728.3 133.7 749.7 136.3 771.2 133.5C792.7 130.7 814.3 122.3 835.8 122.3C857.3 122.3 878.7 130.7 889.3 134.8L900 139L900 102L889.3 97.8C878.7 93.7 857.3 85.3 835.8 82C814.3 78.7 792.7 80.3 771.2 80.3C749.7 80.3 728.3 78.7 707 74.5C685.7 70.3 664.3 63.7 643 62C621.7 60.3 600.3 63.7 578.8 70.3C557.3 77 535.7 87 514.2 88.7C492.7 90.3 471.3 83.7 450 76.5C428.7 69.3 407.3 61.7 385.8 61.2C364.3 60.7 342.7 67.3 321.2 77C299.7 86.7 278.3 99.3 257 92.3C235.7 85.3 214.3 58.7 193 55.3C171.7 52 150.3 72 128.8 86.5C107.3 101 85.7 110 64.2 112.8C42.7 115.7 21.3 112.3 10.7 110.7L0 109Z" fill="#e8eef9"></path><path d="M0 151L10.7 153.2C21.3 155.3 42.7 159.7 64.2 161.3C85.7 163 107.3 162 128.8 152C150.3 142 171.7 123 193 121C214.3 119 235.7 134 257 139.3C278.3 144.7 299.7 140.3 321.2 133.7C342.7 127 364.3 118 385.8 112.7C407.3 107.3 428.7 105.7 450 111C471.3 116.3 492.7 128.7 514.2 128.2C535.7 127.7 557.3 114.3 578.8 106.8C600.3 99.3 621.7 97.7 643 104.3C664.3 111 685.7 126 707 135.7C728.3 145.3 749.7 149.7 771.2 148C792.7 146.3 814.3 138.7 835.8 138.2C857.3 137.7 878.7 144.3 889.3 147.7L900 151L900 137L889.3 132.8C878.7 128.7 857.3 120.3 835.8 120.3C814.3 120.3 792.7 128.7 771.2 131.5C749.7 134.3 728.3 131.7 707 121.2C685.7 110.7 664.3 92.3 643 85.3C621.7 78.3 600.3 82.7 578.8 89.8C557.3 97 535.7 107 514.2 108.2C492.7 109.3 471.3 101.7 450 98.3C428.7 95 407.3 96 385.8 101C364.3 106 342.7 115 321.2 120.3C299.7 125.7 278.3 127.3 257 121.2C235.7 115 214.3 101 193 101.8C171.7 102.7 150.3 118.3 128.8 128.3C107.3 138.3 85.7 142.7 64.2 141C42.7 139.3 21.3 131.7 10.7 127.8L0 124Z" fill="#dee7f7"></path><path d="M0 176L10.7 178.2C21.3 180.3 42.7 184.7 64.2 183.8C85.7 183 107.3 177 128.8 166.2C150.3 155.3 171.7 139.7 193 141C214.3 142.3 235.7 160.7 257 168.2C278.3 175.7 299.7 172.3 321.2 164C342.7 155.7 364.3 142.3 385.8 134C407.3 125.7 428.7 122.3 450 125.7C471.3 129 492.7 139 514.2 137.7C535.7 136.3 557.3 123.7 578.8 117.8C600.3 112 621.7 113 643 122.7C664.3 132.3 685.7 150.7 707 161.8C728.3 173 749.7 177 771.2 174.8C792.7 172.7 814.3 164.3 835.8 160.7C857.3 157 878.7 158 889.3 158.5L900 159L900 149L889.3 145.7C878.7 142.3 857.3 135.7 835.8 136.2C814.3 136.7 792.7 144.3 771.2 146C749.7 147.7 728.3 143.3 707 133.7C685.7 124 664.3 109 643 102.3C621.7 95.7 600.3 97.3 578.8 104.8C557.3 112.3 535.7 125.7 514.2 126.2C492.7 126.7 471.3 114.3 450 109C428.7 103.7 407.3 105.3 385.8 110.7C364.3 116 342.7 125 321.2 131.7C299.7 138.3 278.3 142.7 257 137.3C235.7 132 214.3 117 193 119C171.7 121 150.3 140 128.8 150C107.3 160 85.7 161 64.2 159.3C42.7 157.7 21.3 153.3 10.7 151.2L0 149Z" fill="#dee7f7"></path><path d="M0 184L10.7 186C21.3 188 42.7 192 64.2 192.3C85.7 192.7 107.3 189.3 128.8 178.5C150.3 167.7 171.7 149.3 193 151.8C214.3 154.3 235.7 177.7 257 186.5C278.3 195.3 299.7 189.7 321.2 181.8C342.7 174 364.3 164 385.8 156.8C407.3 149.7 428.7 145.3 450 148.7C471.3 152 492.7 163 514.2 161.3C535.7 159.7 557.3 145.3 578.8 137.3C600.3 129.3 621.7 127.7 643 135.2C664.3 142.7 685.7 159.3 707 172.3C728.3 185.3 749.7 194.7 771.2 193.8C792.7 193 814.3 182 835.8 179C857.3 176 878.7 181 889.3 183.5L900 186L900 157L889.3 156.5C878.7 156 857.3 155 835.8 158.7C814.3 162.3 792.7 170.7 771.2 172.8C749.7 175 728.3 171 707 159.8C685.7 148.7 664.3 130.3 643 120.7C621.7 111 600.3 110 578.8 115.8C557.3 121.7 535.7 134.3 514.2 135.7C492.7 137 471.3 127 450 123.7C428.7 120.3 407.3 123.7 385.8 132C364.3 140.3 342.7 153.7 321.2 162C299.7 170.3 278.3 173.7 257 166.2C235.7 158.7 214.3 140.3 193 139C171.7 137.7 150.3 153.3 128.8 164.2C107.3 175 85.7 181 64.2 181.8C42.7 182.7 21.3 178.3 10.7 176.2L0 174Z" fill="#e8eef9"></path><path d="M0 229L10.7 227.7C21.3 226.3 42.7 223.7 64.2 223.2C85.7 222.7 107.3 224.3 128.8 224C150.3 223.7 171.7 221.3 193 223.5C214.3 225.7 235.7 232.3 257 235.7C278.3 239 299.7 239 321.2 235.2C342.7 231.3 364.3 223.7 385.8 219.8C407.3 216 428.7 216 450 219.3C471.3 222.7 492.7 229.3 514.2 230.2C535.7 231 557.3 226 578.8 225.2C600.3 224.3 621.7 227.7 643 228.2C664.3 228.7 685.7 226.3 707 228C728.3 229.7 749.7 235.3 771.2 235.3C792.7 235.3 814.3 229.7 835.8 227.7C857.3 225.7 878.7 227.3 889.3 228.2L900 229L900 184L889.3 181.5C878.7 179 857.3 174 835.8 177C814.3 180 792.7 191 771.2 191.8C749.7 192.7 728.3 183.3 707 170.3C685.7 157.3 664.3 140.7 643 133.2C621.7 125.7 600.3 127.3 578.8 135.3C557.3 143.3 535.7 157.7 514.2 159.3C492.7 161 471.3 150 450 146.7C428.7 143.3 407.3 147.7 385.8 154.8C364.3 162 342.7 172 321.2 179.8C299.7 187.7 278.3 193.3 257 184.5C235.7 175.7 214.3 152.3 193 149.8C171.7 147.3 150.3 165.7 128.8 176.5C107.3 187.3 85.7 190.7 64.2 190.3C42.7 190 21.3 186 10.7 184L0 182Z" fill="#f4f6fc"></path><path d="M0 251L10.7 251C21.3 251 42.7 251 64.2 251C85.7 251 107.3 251 128.8 251C150.3 251 171.7 251 193 251C214.3 251 235.7 251 257 251C278.3 251 299.7 251 321.2 251C342.7 251 364.3 251 385.8 251C407.3 251 428.7 251 450 251C471.3 251 492.7 251 514.2 251C535.7 251 557.3 251 578.8 251C600.3 251 621.7 251 643 251C664.3 251 685.7 251 707 251C728.3 251 749.7 251 771.2 251C792.7 251 814.3 251 835.8 251C857.3 251 878.7 251 889.3 251L900 251L900 227L889.3 226.2C878.7 225.3 857.3 223.7 835.8 225.7C814.3 227.7 792.7 233.3 771.2 233.3C749.7 233.3 728.3 227.7 707 226C685.7 224.3 664.3 226.7 643 226.2C621.7 225.7 600.3 222.3 578.8 223.2C557.3 224 535.7 229 514.2 228.2C492.7 227.3 471.3 220.7 450 217.3C428.7 214 407.3 214 385.8 217.8C364.3 221.7 342.7 229.3 321.2 233.2C299.7 237 278.3 237 257 233.7C235.7 230.3 214.3 223.7 193 221.5C171.7 219.3 150.3 221.7 128.8 222C107.3 222.3 85.7 220.7 64.2 221.2C42.7 221.7 21.3 224.3 10.7 225.7L0 227Z" fill="#ffffff"></path></svg>