<svg id="visual" viewBox="0 0 900 150" width="900" height="150" xmlns="http://www.w3.org/2000/svg" xmlns:xlink="http://www.w3.org/1999/xlink" version="1.1"><path d="M0 54L11.5 50.2C23 46.3 46 38.7 69 43.5C92 48.3 115 65.7 138.2 65.2C161.3 64.7 184.7 46.3 207.8 41.5C231 36.7 254 45.3 277 52C300 58.7 323 63.3 346 58.8C369 54.3 392 40.7 415.2 39.7C438.3 38.7 461.7 50.3 484.8 59.8C508 69.3 531 76.7 554 75.2C577 73.7 600 63.3 623 52.3C646 41.3 669 29.7 692.2 23.7C715.3 17.7 738.7 17.3 761.8 21C785 24.7 808 32.3 831 38.5C854 44.7 877 49.3 888.5 51.7L900 54L900 151L888.5 151C877 151 854 151 831 151C808 151 785 151 761.8 151C738.7 151 715.3 151 692.2 151C669 151 646 151 623 151C600 151 577 151 554 151C531 151 508 151 484.8 151C461.7 151 438.3 151 415.2 151C392 151 369 151 346 151C323 151 300 151 277 151C254 151 231 151 207.8 151C184.7 151 161.3 151 138.2 151C115 151 92 151 69 151C46 151 23 151 11.5 151L0 151Z" fill="#cedaf3"></path><path d="M0 87L11.5 89.7C23 92.3 46 97.7 69 91.8C92 86 115 69 138.2 62.3C161.3 55.7 184.7 59.3 207.8 66.2C231 73 254 83 277 82.8C300 82.7 323 72.3 346 69.7C369 67 392 72 415.2 73C438.3 74 461.7 71 484.8 72.7C508 74.3 531 80.7 554 82.3C577 84 600 81 623 82C646 83 669 88 692.2 91.2C715.3 94.3 738.7 95.7 761.8 93.7C785 91.7 808 86.3 831 79.8C854 73.3 877 65.7 888.5 61.8L900 58L900 151L888.5 151C877 151 854 151 831 151C808 151 785 151 761.8 151C738.7 151 715.3 151 692.2 151C669 151 646 151 623 151C600 151 577 151 554 151C531 151 508 151 484.8 151C461.7 151 438.3 151 415.2 151C392 151 369 151 346 151C323 151 300 151 277 151C254 151 231 151 207.8 151C184.7 151 161.3 151 138.2 151C115 151 92 151 69 151C46 151 23 151 11.5 151L0 151Z" fill="#dfe6f7"></path><path d="M0 76L11.5 79.3C23 82.7 46 89.3 69 91.7C92 94 115 92 138.2 90.5C161.3 89 184.7 88 207.8 93.2C231 98.3 254 109.7 277 109.2C300 108.7 323 96.3 346 92.5C369 88.7 392 93.3 415.2 98.2C438.3 103 461.7 108 484.8 110.7C508 113.3 531 113.7 554 107.5C577 101.3 600 88.7 623 87.7C646 86.7 669 97.3 692.2 98.5C715.3 99.7 738.7 91.3 761.8 86.5C785 81.7 808 80.3 831 80C854 79.7 877 80.3 888.5 80.7L900 81L900 151L888.5 151C877 151 854 151 831 151C808 151 785 151 761.8 151C738.7 151 715.3 151 692.2 151C669 151 646 151 623 151C600 151 577 151 554 151C531 151 508 151 484.8 151C461.7 151 438.3 151 415.2 151C392 151 369 151 346 151C323 151 300 151 277 151C254 151 231 151 207.8 151C184.7 151 161.3 151 138.2 151C115 151 92 151 69 151C46 151 23 151 11.5 151L0 151Z" fill="#eff2fb"></path><path d="M0 137L11.5 131.2C23 125.3 46 113.7 69 109C92 104.3 115 106.7 138.2 110.5C161.3 114.3 184.7 119.7 207.8 119C231 118.3 254 111.7 277 112.2C300 112.7 323 120.3 346 121C369 121.7 392 115.3 415.2 115.3C438.3 115.3 461.7 121.7 484.8 123C508 124.3 531 120.7 554 122.5C577 124.3 600 131.7 623 130.2C646 128.7 669 118.3 692.2 116.8C715.3 115.3 738.7 122.7 761.8 127C785 131.3 808 132.7 831 131.7C854 130.7 877 127.3 888.5 125.7L900 124L900 151L888.5 151C877 151 854 151 831 151C808 151 785 151 761.8 151C738.7 151 715.3 151 692.2 151C669 151 646 151 623 151C600 151 577 151 554 151C531 151 508 151 484.8 151C461.7 151 438.3 151 415.2 151C392 151 369 151 346 151C323 151 300 151 277 151C254 151 231 151 207.8 151C184.7 151 161.3 151 138.2 151C115 151 92 151 69 151C46 151 23 151 11.5 151L0 151Z" fill="#ffffff"></path></svg>