<svg id="visual" viewBox="0 0 900 150" width="900" height="150" xmlns="http://www.w3.org/2000/svg" xmlns:xlink="http://www.w3.org/1999/xlink" version="1.1"><path d="M0 29L11.5 33C23 37 46 45 69 54.8C92 64.7 115 76.3 138.2 70.8C161.3 65.3 184.7 42.7 207.8 34.7C231 26.7 254 33.3 277 38.8C300 44.3 323 48.7 346 55.5C369 62.3 392 71.7 415.2 69.7C438.3 67.7 461.7 54.3 484.8 53.5C508 52.7 531 64.3 554 71.7C577 79 600 82 623 82.2C646 82.3 669 79.7 692.2 78C715.3 76.3 738.7 75.7 761.8 77.3C785 79 808 83 831 81.2C854 79.3 877 71.7 888.5 67.8L900 64L900 151L888.5 151C877 151 854 151 831 151C808 151 785 151 761.8 151C738.7 151 715.3 151 692.2 151C669 151 646 151 623 151C600 151 577 151 554 151C531 151 508 151 484.8 151C461.7 151 438.3 151 415.2 151C392 151 369 151 346 151C323 151 300 151 277 151C254 151 231 151 207.8 151C184.7 151 161.3 151 138.2 151C115 151 92 151 69 151C46 151 23 151 11.5 151L0 151Z" fill="#dee6f7"></path><path d="M0 92L11.5 92.2C23 92.3 46 92.7 69 85.5C92 78.3 115 63.7 138.2 62.8C161.3 62 184.7 75 207.8 75.5C231 76 254 64 277 61.2C300 58.3 323 64.7 346 72C369 79.3 392 87.7 415.2 84.3C438.3 81 461.7 66 484.8 57.2C508 48.3 531 45.7 554 44.3C577 43 600 43 623 51.8C646 60.7 669 78.3 692.2 86.7C715.3 95 738.7 94 761.8 95.2C785 96.3 808 99.7 831 92C854 84.3 877 65.7 888.5 56.3L900 47L900 151L888.5 151C877 151 854 151 831 151C808 151 785 151 761.8 151C738.7 151 715.3 151 692.2 151C669 151 646 151 623 151C600 151 577 151 554 151C531 151 508 151 484.8 151C461.7 151 438.3 151 415.2 151C392 151 369 151 346 151C323 151 300 151 277 151C254 151 231 151 207.8 151C184.7 151 161.3 151 138.2 151C115 151 92 151 69 151C46 151 23 151 11.5 151L0 151Z" fill="#eaeefa"></path><path d="M0 89L11.5 86.3C23 83.7 46 78.3 69 77C92 75.7 115 78.3 138.2 82C161.3 85.7 184.7 90.3 207.8 92.3C231 94.3 254 93.7 277 92.8C300 92 323 91 346 89.3C369 87.7 392 85.3 415.2 89.2C438.3 93 461.7 103 484.8 108.3C508 113.7 531 114.3 554 108.8C577 103.3 600 91.7 623 89.7C646 87.7 669 95.3 692.2 99.5C715.3 103.7 738.7 104.3 761.8 99C785 93.7 808 82.3 831 77.2C854 72 877 73 888.5 73.5L900 74L900 151L888.5 151C877 151 854 151 831 151C808 151 785 151 761.8 151C738.7 151 715.3 151 692.2 151C669 151 646 151 623 151C600 151 577 151 554 151C531 151 508 151 484.8 151C461.7 151 438.3 151 415.2 151C392 151 369 151 346 151C323 151 300 151 277 151C254 151 231 151 207.8 151C184.7 151 161.3 151 138.2 151C115 151 92 151 69 151C46 151 23 151 11.5 151L0 151Z" fill="#f4f6fc"></path><path d="M0 133L11.5 129.2C23 125.3 46 117.7 69 113.2C92 108.7 115 107.3 138.2 110C161.3 112.7 184.7 119.3 207.8 121.7C231 124 254 122 277 124C300 126 323 132 346 131.5C369 131 392 124 415.2 119.5C438.3 115 461.7 113 484.8 110.3C508 107.7 531 104.3 554 104.7C577 105 600 109 623 110.2C646 111.3 669 109.7 692.2 108.8C715.3 108 738.7 108 761.8 106.8C785 105.7 808 103.3 831 105.2C854 107 877 113 888.5 116L900 119L900 151L888.5 151C877 151 854 151 831 151C808 151 785 151 761.8 151C738.7 151 715.3 151 692.2 151C669 151 646 151 623 151C600 151 577 151 554 151C531 151 508 151 484.8 151C461.7 151 438.3 151 415.2 151C392 151 369 151 346 151C323 151 300 151 277 151C254 151 231 151 207.8 151C184.7 151 161.3 151 138.2 151C115 151 92 151 69 151C46 151 23 151 11.5 151L0 151Z" fill="#ffffff"></path></svg>