<svg id="visual" viewBox="0 0 900 150" width="900" height="150" xmlns="http://www.w3.org/2000/svg" xmlns:xlink="http://www.w3.org/1999/xlink" version="1.1"><path d="M0 68L11.5 67.2C23 66.3 46 64.7 69 59.8C92 55 115 47 138.2 44.5C161.3 42 184.7 45 207.8 50.5C231 56 254 64 277 69.3C300 74.7 323 77.3 346 74C369 70.7 392 61.3 415.2 54.3C438.3 47.3 461.7 42.7 484.8 49.3C508 56 531 74 554 74.3C577 74.7 600 57.3 623 57.2C646 57 669 74 692.2 74C715.3 74 738.7 57 761.8 56.2C785 55.3 808 70.7 831 76.2C854 81.7 877 77.3 888.5 75.2L900 73L900 151L888.5 151C877 151 854 151 831 151C808 151 785 151 761.8 151C738.7 151 715.3 151 692.2 151C669 151 646 151 623 151C600 151 577 151 554 151C531 151 508 151 484.8 151C461.7 151 438.3 151 415.2 151C392 151 369 151 346 151C323 151 300 151 277 151C254 151 231 151 207.8 151C184.7 151 161.3 151 138.2 151C115 151 92 151 69 151C46 151 23 151 11.5 151L0 151Z" fill="#dee6f7"></path><path d="M0 103L11.5 98.7C23 94.3 46 85.7 69 80.3C92 75 115 73 138.2 76.2C161.3 79.3 184.7 87.7 207.8 90.7C231 93.7 254 91.3 277 93.7C300 96 323 103 346 107C369 111 392 112 415.2 104.8C438.3 97.7 461.7 82.3 484.8 79.8C508 77.3 531 87.7 554 87.3C577 87 600 76 623 78.8C646 81.7 669 98.3 692.2 97.7C715.3 97 738.7 79 761.8 75C785 71 808 81 831 81.5C854 82 877 73 888.5 68.5L900 64L900 151L888.5 151C877 151 854 151 831 151C808 151 785 151 761.8 151C738.7 151 715.3 151 692.2 151C669 151 646 151 623 151C600 151 577 151 554 151C531 151 508 151 484.8 151C461.7 151 438.3 151 415.2 151C392 151 369 151 346 151C323 151 300 151 277 151C254 151 231 151 207.8 151C184.7 151 161.3 151 138.2 151C115 151 92 151 69 151C46 151 23 151 11.5 151L0 151Z" fill="#eff2fb"></path><path d="M0 128L11.5 125.2C23 122.3 46 116.7 69 112.2C92 107.7 115 104.3 138.2 101.8C161.3 99.3 184.7 97.7 207.8 102C231 106.3 254 116.7 277 122.2C300 127.7 323 128.3 346 127.7C369 127 392 125 415.2 121.5C438.3 118 461.7 113 484.8 110.7C508 108.3 531 108.7 554 111C577 113.3 600 117.7 623 114.5C646 111.3 669 100.7 692.2 102.3C715.3 104 738.7 118 761.8 125C785 132 808 132 831 130.8C854 129.7 877 127.3 888.5 126.2L900 125L900 151L888.5 151C877 151 854 151 831 151C808 151 785 151 761.8 151C738.7 151 715.3 151 692.2 151C669 151 646 151 623 151C600 151 577 151 554 151C531 151 508 151 484.8 151C461.7 151 438.3 151 415.2 151C392 151 369 151 346 151C323 151 300 151 277 151C254 151 231 151 207.8 151C184.7 151 161.3 151 138.2 151C115 151 92 151 69 151C46 151 23 151 11.5 151L0 151Z" fill="#ffffff"></path></svg>