<svg id="visual" viewBox="0 0 900 150" width="900" height="150" xmlns="http://www.w3.org/2000/svg" xmlns:xlink="http://www.w3.org/1999/xlink" version="1.1"><path d="M0 16L11.5 18.7C23 21.3 46 26.7 69 29C92 31.3 115 30.7 138.2 33.2C161.3 35.7 184.7 41.3 207.8 37.2C231 33 254 19 277 15.8C300 12.7 323 20.3 346 21.3C369 22.3 392 16.7 415.2 14.8C438.3 13 461.7 15 484.8 16C508 17 531 17 554 24C577 31 600 45 623 47.2C646 49.3 669 39.7 692.2 35.8C715.3 32 738.7 34 761.8 41C785 48 808 60 831 59.2C854 58.3 877 44.7 888.5 37.8L900 31L900 151L888.5 151C877 151 854 151 831 151C808 151 785 151 761.8 151C738.7 151 715.3 151 692.2 151C669 151 646 151 623 151C600 151 577 151 554 151C531 151 508 151 484.8 151C461.7 151 438.3 151 415.2 151C392 151 369 151 346 151C323 151 300 151 277 151C254 151 231 151 207.8 151C184.7 151 161.3 151 138.2 151C115 151 92 151 69 151C46 151 23 151 11.5 151L0 151Z" fill="#dee6f7"></path><path d="M0 100L11.5 91.5C23 83 46 66 69 56.2C92 46.3 115 43.7 138.2 48.2C161.3 52.7 184.7 64.3 207.8 76C231 87.7 254 99.3 277 94C300 88.7 323 66.3 346 59C369 51.7 392 59.3 415.2 67C438.3 74.7 461.7 82.3 484.8 86.8C508 91.3 531 92.7 554 87C577 81.3 600 68.7 623 63.8C646 59 669 62 692.2 67.7C715.3 73.3 738.7 81.7 761.8 87C785 92.3 808 94.7 831 89.7C854 84.7 877 72.3 888.5 66.2L900 60L900 151L888.5 151C877 151 854 151 831 151C808 151 785 151 761.8 151C738.7 151 715.3 151 692.2 151C669 151 646 151 623 151C600 151 577 151 554 151C531 151 508 151 484.8 151C461.7 151 438.3 151 415.2 151C392 151 369 151 346 151C323 151 300 151 277 151C254 151 231 151 207.8 151C184.7 151 161.3 151 138.2 151C115 151 92 151 69 151C46 151 23 151 11.5 151L0 151Z" fill="#eff2fb"></path><path d="M0 140L11.5 131.5C23 123 46 106 69 101.3C92 96.7 115 104.3 138.2 111.8C161.3 119.3 184.7 126.7 207.8 124.5C231 122.3 254 110.7 277 110.3C300 110 323 121 346 121C369 121 392 110 415.2 109.2C438.3 108.3 461.7 117.7 484.8 120C508 122.3 531 117.7 554 113.3C577 109 600 105 623 103.5C646 102 669 103 692.2 107.8C715.3 112.7 738.7 121.3 761.8 125.3C785 129.3 808 128.7 831 121.8C854 115 877 102 888.5 95.5L900 89L900 151L888.5 151C877 151 854 151 831 151C808 151 785 151 761.8 151C738.7 151 715.3 151 692.2 151C669 151 646 151 623 151C600 151 577 151 554 151C531 151 508 151 484.8 151C461.7 151 438.3 151 415.2 151C392 151 369 151 346 151C323 151 300 151 277 151C254 151 231 151 207.8 151C184.7 151 161.3 151 138.2 151C115 151 92 151 69 151C46 151 23 151 11.5 151L0 151Z" fill="#ffffff"></path></svg>