<svg id="visual" viewBox="0 0 900 150" width="900" height="150" xmlns="http://www.w3.org/2000/svg" xmlns:xlink="http://www.w3.org/1999/xlink" version="1.1"><rect x="0" y="0" width="900" height="150" fill="#DEE6F7"></rect><path d="M0 16L11.5 19C23 22 46 28 69 30.7C92 33.3 115 32.7 138.2 31.2C161.3 29.7 184.7 27.3 207.8 29.8C231 32.3 254 39.7 277 36.3C300 33 323 19 346 13C369 7 392 9 415.2 16.5C438.3 24 461.7 37 484.8 41.2C508 45.3 531 40.7 554 38.8C577 37 600 38 623 38.2C646 38.3 669 37.7 692.2 33C715.3 28.3 738.7 19.7 761.8 19.5C785 19.3 808 27.7 831 30C854 32.3 877 28.7 888.5 26.8L900 25L900 151L888.5 151C877 151 854 151 831 151C808 151 785 151 761.8 151C738.7 151 715.3 151 692.2 151C669 151 646 151 623 151C600 151 577 151 554 151C531 151 508 151 484.8 151C461.7 151 438.3 151 415.2 151C392 151 369 151 346 151C323 151 300 151 277 151C254 151 231 151 207.8 151C184.7 151 161.3 151 138.2 151C115 151 92 151 69 151C46 151 23 151 11.5 151L0 151Z" fill="#dee6f7"></path><path d="M0 59L11.5 60.5C23 62 46 65 69 64.3C92 63.7 115 59.3 138.2 58.7C161.3 58 184.7 61 207.8 57.3C231 53.7 254 43.3 277 43C300 42.7 323 52.3 346 58C369 63.7 392 65.3 415.2 62.8C438.3 60.3 461.7 53.7 484.8 49.3C508 45 531 43 554 44.8C577 46.7 600 52.3 623 59.7C646 67 669 76 692.2 75.7C715.3 75.3 738.7 65.7 761.8 58.2C785 50.7 808 45.3 831 43.8C854 42.3 877 44.7 888.5 45.8L900 47L900 151L888.5 151C877 151 854 151 831 151C808 151 785 151 761.8 151C738.7 151 715.3 151 692.2 151C669 151 646 151 623 151C600 151 577 151 554 151C531 151 508 151 484.8 151C461.7 151 438.3 151 415.2 151C392 151 369 151 346 151C323 151 300 151 277 151C254 151 231 151 207.8 151C184.7 151 161.3 151 138.2 151C115 151 92 151 69 151C46 151 23 151 11.5 151L0 151Z" fill="#eaeefa"></path><path d="M0 91L11.5 91.5C23 92 46 93 69 95.2C92 97.3 115 100.7 138.2 95.7C161.3 90.7 184.7 77.3 207.8 74.2C231 71 254 78 277 82.2C300 86.3 323 87.7 346 92.8C369 98 392 107 415.2 111.5C438.3 116 461.7 116 484.8 110.8C508 105.7 531 95.3 554 92.2C577 89 600 93 623 97C646 101 669 105 692.2 102.5C715.3 100 738.7 91 761.8 85.7C785 80.3 808 78.7 831 77.2C854 75.7 877 74.3 888.5 73.7L900 73L900 151L888.5 151C877 151 854 151 831 151C808 151 785 151 761.8 151C738.7 151 715.3 151 692.2 151C669 151 646 151 623 151C600 151 577 151 554 151C531 151 508 151 484.8 151C461.7 151 438.3 151 415.2 151C392 151 369 151 346 151C323 151 300 151 277 151C254 151 231 151 207.8 151C184.7 151 161.3 151 138.2 151C115 151 92 151 69 151C46 151 23 151 11.5 151L0 151Z" fill="#f4f6fc"></path><path d="M0 142L11.5 137.8C23 133.7 46 125.3 69 122.3C92 119.3 115 121.7 138.2 120.5C161.3 119.3 184.7 114.7 207.8 118.2C231 121.7 254 133.3 277 137.2C300 141 323 137 346 129.2C369 121.3 392 109.7 415.2 108.3C438.3 107 461.7 116 484.8 121.7C508 127.3 531 129.7 554 128.5C577 127.3 600 122.7 623 118.3C646 114 669 110 692.2 111.7C715.3 113.3 738.7 120.7 761.8 125C785 129.3 808 130.7 831 125.7C854 120.7 877 109.3 888.5 103.7L900 98L900 151L888.5 151C877 151 854 151 831 151C808 151 785 151 761.8 151C738.7 151 715.3 151 692.2 151C669 151 646 151 623 151C600 151 577 151 554 151C531 151 508 151 484.8 151C461.7 151 438.3 151 415.2 151C392 151 369 151 346 151C323 151 300 151 277 151C254 151 231 151 207.8 151C184.7 151 161.3 151 138.2 151C115 151 92 151 69 151C46 151 23 151 11.5 151L0 151Z" fill="#ffffff"></path></svg>