<svg id="visual" viewBox="0 0 900 150" width="900" height="150" xmlns="http://www.w3.org/2000/svg" xmlns:xlink="http://www.w3.org/1999/xlink" version="1.1"><path d="M0 15L11.5 15.5C23 16 46 17 69 20.5C92 24 115 30 138.2 27.8C161.3 25.7 184.7 15.3 207.8 10.8C231 6.3 254 7.7 277 13C300 18.3 323 27.7 346 29C369 30.3 392 23.7 415.2 22.5C438.3 21.3 461.7 25.7 484.8 24.3C508 23 531 16 554 16.5C577 17 600 25 623 30.8C646 36.7 669 40.3 692.2 39.8C715.3 39.3 738.7 34.7 761.8 31.3C785 28 808 26 831 25.7C854 25.3 877 26.7 888.5 27.3L900 28L900 151L888.5 151C877 151 854 151 831 151C808 151 785 151 761.8 151C738.7 151 715.3 151 692.2 151C669 151 646 151 623 151C600 151 577 151 554 151C531 151 508 151 484.8 151C461.7 151 438.3 151 415.2 151C392 151 369 151 346 151C323 151 300 151 277 151C254 151 231 151 207.8 151C184.7 151 161.3 151 138.2 151C115 151 92 151 69 151C46 151 23 151 11.5 151L0 151Z" fill="#ffffff"></path><path d="M0 45L11.5 45.3C23 45.7 46 46.3 69 47.3C92 48.3 115 49.7 138.2 45.5C161.3 41.3 184.7 31.7 207.8 32.7C231 33.7 254 45.3 277 50.5C300 55.7 323 54.3 346 52C369 49.7 392 46.3 415.2 41C438.3 35.7 461.7 28.3 484.8 29C508 29.7 531 38.3 554 39.8C577 41.3 600 35.7 623 37.5C646 39.3 669 48.7 692.2 51.3C715.3 54 738.7 50 761.8 44.3C785 38.7 808 31.3 831 32.2C854 33 877 42 888.5 46.5L900 51L900 151L888.5 151C877 151 854 151 831 151C808 151 785 151 761.8 151C738.7 151 715.3 151 692.2 151C669 151 646 151 623 151C600 151 577 151 554 151C531 151 508 151 484.8 151C461.7 151 438.3 151 415.2 151C392 151 369 151 346 151C323 151 300 151 277 151C254 151 231 151 207.8 151C184.7 151 161.3 151 138.2 151C115 151 92 151 69 151C46 151 23 151 11.5 151L0 151Z" fill="#f2f4fc"></path><path d="M0 54L11.5 56C23 58 46 62 69 60.2C92 58.3 115 50.7 138.2 46.2C161.3 41.7 184.7 40.3 207.8 41.5C231 42.7 254 46.3 277 46.5C300 46.7 323 43.3 346 45.5C369 47.7 392 55.3 415.2 58.2C438.3 61 461.7 59 484.8 61C508 63 531 69 554 66.3C577 63.7 600 52.3 623 52.7C646 53 669 65 692.2 68.8C715.3 72.7 738.7 68.3 761.8 64.7C785 61 808 58 831 55.3C854 52.7 877 50.3 888.5 49.2L900 48L900 151L888.5 151C877 151 854 151 831 151C808 151 785 151 761.8 151C738.7 151 715.3 151 692.2 151C669 151 646 151 623 151C600 151 577 151 554 151C531 151 508 151 484.8 151C461.7 151 438.3 151 415.2 151C392 151 369 151 346 151C323 151 300 151 277 151C254 151 231 151 207.8 151C184.7 151 161.3 151 138.2 151C115 151 92 151 69 151C46 151 23 151 11.5 151L0 151Z" fill="#e4eaf8"></path><path d="M0 90L11.5 87.2C23 84.3 46 78.7 69 78.2C92 77.7 115 82.3 138.2 82.7C161.3 83 184.7 79 207.8 80.5C231 82 254 89 277 86C300 83 323 70 346 67.5C369 65 392 73 415.2 77.7C438.3 82.3 461.7 83.7 484.8 79.7C508 75.7 531 66.3 554 62.2C577 58 600 59 623 62.3C646 65.7 669 71.3 692.2 71.3C715.3 71.3 738.7 65.7 761.8 64.8C785 64 808 68 831 73.7C854 79.3 877 86.7 888.5 90.3L900 94L900 151L888.5 151C877 151 854 151 831 151C808 151 785 151 761.8 151C738.7 151 715.3 151 692.2 151C669 151 646 151 623 151C600 151 577 151 554 151C531 151 508 151 484.8 151C461.7 151 438.3 151 415.2 151C392 151 369 151 346 151C323 151 300 151 277 151C254 151 231 151 207.8 151C184.7 151 161.3 151 138.2 151C115 151 92 151 69 151C46 151 23 151 11.5 151L0 151Z" fill="#dee6f7"></path><path d="M0 96L11.5 97.7C23 99.3 46 102.7 69 101.7C92 100.7 115 95.3 138.2 90.3C161.3 85.3 184.7 80.7 207.8 80C231 79.3 254 82.7 277 85C300 87.3 323 88.7 346 90.3C369 92 392 94 415.2 93.8C438.3 93.7 461.7 91.3 484.8 91.5C508 91.7 531 94.3 554 92.7C577 91 600 85 623 85.2C646 85.3 669 91.7 692.2 95.2C715.3 98.7 738.7 99.3 761.8 96C785 92.7 808 85.3 831 84.8C854 84.3 877 90.7 888.5 93.8L900 97L900 151L888.5 151C877 151 854 151 831 151C808 151 785 151 761.8 151C738.7 151 715.3 151 692.2 151C669 151 646 151 623 151C600 151 577 151 554 151C531 151 508 151 484.8 151C461.7 151 438.3 151 415.2 151C392 151 369 151 346 151C323 151 300 151 277 151C254 151 231 151 207.8 151C184.7 151 161.3 151 138.2 151C115 151 92 151 69 151C46 151 23 151 11.5 151L0 151Z" fill="#e4eaf8"></path><path d="M0 109L11.5 107.5C23 106 46 103 69 104.5C92 106 115 112 138.2 113.2C161.3 114.3 184.7 110.7 207.8 108.5C231 106.3 254 105.7 277 106.3C300 107 323 109 346 107.5C369 106 392 101 415.2 100.7C438.3 100.3 461.7 104.7 484.8 108.5C508 112.3 531 115.7 554 113.3C577 111 600 103 623 99.7C646 96.3 669 97.7 692.2 102.2C715.3 106.7 738.7 114.3 761.8 116.5C785 118.7 808 115.3 831 115.7C854 116 877 120 888.5 122L900 124L900 151L888.5 151C877 151 854 151 831 151C808 151 785 151 761.8 151C738.7 151 715.3 151 692.2 151C669 151 646 151 623 151C600 151 577 151 554 151C531 151 508 151 484.8 151C461.7 151 438.3 151 415.2 151C392 151 369 151 346 151C323 151 300 151 277 151C254 151 231 151 207.8 151C184.7 151 161.3 151 138.2 151C115 151 92 151 69 151C46 151 23 151 11.5 151L0 151Z" fill="#f2f4fc"></path><path d="M0 147L11.5 141.8C23 136.7 46 126.3 69 126C92 125.7 115 135.3 138.2 138.3C161.3 141.3 184.7 137.7 207.8 138C231 138.3 254 142.7 277 139.8C300 137 323 127 346 123.3C369 119.7 392 122.3 415.2 124C438.3 125.7 461.7 126.3 484.8 127.8C508 129.3 531 131.7 554 132.7C577 133.7 600 133.3 623 132.3C646 131.3 669 129.7 692.2 127.3C715.3 125 738.7 122 761.8 120.5C785 119 808 119 831 118.5C854 118 877 117 888.5 116.5L900 116L900 151L888.5 151C877 151 854 151 831 151C808 151 785 151 761.8 151C738.7 151 715.3 151 692.2 151C669 151 646 151 623 151C600 151 577 151 554 151C531 151 508 151 484.8 151C461.7 151 438.3 151 415.2 151C392 151 369 151 346 151C323 151 300 151 277 151C254 151 231 151 207.8 151C184.7 151 161.3 151 138.2 151C115 151 92 151 69 151C46 151 23 151 11.5 151L0 151Z" fill="#ffffff"></path></svg>