<svg id="visual" viewBox="0 0 900 600" width="900" height="600" xmlns="http://www.w3.org/2000/svg" xmlns:xlink="http://www.w3.org/1999/xlink" version="1.1"><rect x="0" y="0" width="900" height="600" fill="#FFF"></rect><path d="M0 406L25 410.2C50 414.3 100 422.7 150 422.7C200 422.7 250 414.3 300 403.7C350 393 400 380 450 384.7C500 389.3 550 411.7 600 424.5C650 437.3 700 440.7 750 441C800 441.3 850 438.7 875 437.3L900 436L900 601L875 601C850 601 800 601 750 601C700 601 650 601 600 601C550 601 500 601 450 601C400 601 350 601 300 601C250 601 200 601 150 601C100 601 50 601 25 601L0 601Z" fill="#bacdea"></path><path d="M0 410L25 412.3C50 414.7 100 419.3 150 429.8C200 440.3 250 456.7 300 461.2C350 465.7 400 458.3 450 452C500 445.7 550 440.3 600 448.5C650 456.7 700 478.3 750 481C800 483.7 850 467.3 875 459.2L900 451L900 601L875 601C850 601 800 601 750 601C700 601 650 601 600 601C550 601 500 601 450 601C400 601 350 601 300 601C250 601 200 601 150 601C100 601 50 601 25 601L0 601Z" fill="#7d8cbb"></path><path d="M0 483L25 484.3C50 485.7 100 488.3 150 484.8C200 481.3 250 471.7 300 477C350 482.3 400 502.7 450 513.5C500 524.3 550 525.7 600 515C650 504.3 700 481.7 750 474.3C800 467 850 475 875 479L900 483L900 601L875 601C850 601 800 601 750 601C700 601 650 601 600 601C550 601 500 601 450 601C400 601 350 601 300 601C250 601 200 601 150 601C100 601 50 601 25 601L0 601Z" fill="#4e4e8a"></path><path d="M0 566L25 561.7C50 557.3 100 548.7 150 540C200 531.3 250 522.7 300 518C350 513.3 400 512.7 450 521.3C500 530 550 548 600 551.8C650 555.7 700 545.3 750 539.7C800 534 850 533 875 532.5L900 532L900 601L875 601C850 601 800 601 750 601C700 601 650 601 600 601C550 601 500 601 450 601C400 601 350 601 300 601C250 601 200 601 150 601C100 601 50 601 25 601L0 601Z" fill="#2b1055"></path></svg>