<svg id="visual" viewBox="0 0 900 600" width="900" height="600" xmlns="http://www.w3.org/2000/svg" xmlns:xlink="http://www.w3.org/1999/xlink" version="1.1"><path d="M0 133L16.7 141C33.3 149 66.7 165 100 184C133.3 203 166.7 225 200 207C233.3 189 266.7 131 300 114C333.3 97 366.7 121 400 149C433.3 177 466.7 209 500 216C533.3 223 566.7 205 600 170C633.3 135 666.7 83 700 67C733.3 51 766.7 71 800 77C833.3 83 866.7 75 883.3 71L900 67L900 0L883.3 0C866.7 0 833.3 0 800 0C766.7 0 733.3 0 700 0C666.7 0 633.3 0 600 0C566.7 0 533.3 0 500 0C466.7 0 433.3 0 400 0C366.7 0 333.3 0 300 0C266.7 0 233.3 0 200 0C166.7 0 133.3 0 100 0C66.7 0 33.3 0 16.7 0L0 0Z" fill="#ebe5f0"></path><path d="M0 241L16.7 250C33.3 259 66.7 277 100 282C133.3 287 166.7 279 200 245C233.3 211 266.7 151 300 133C333.3 115 366.7 139 400 175C433.3 211 466.7 259 500 279C533.3 299 566.7 291 600 271C633.3 251 666.7 219 700 195C733.3 171 766.7 155 800 151C833.3 147 866.7 155 883.3 159L900 163L900 65L883.3 69C866.7 73 833.3 81 800 75C766.7 69 733.3 49 700 65C666.7 81 633.3 133 600 168C566.7 203 533.3 221 500 214C466.7 207 433.3 175 400 147C366.7 119 333.3 95 300 112C266.7 129 233.3 187 200 205C166.7 223 133.3 201 100 182C66.7 163 33.3 147 16.7 139L0 131Z" fill="#f5f2f7"></path><path d="M0 403L16.7 398C33.3 393 66.7 383 100 380C133.3 377 166.7 381 200 373C233.3 365 266.7 345 300 332C333.3 319 366.7 313 400 325C433.3 337 466.7 367 500 380C533.3 393 566.7 389 600 385C633.3 381 666.7 377 700 388C733.3 399 766.7 425 800 429C833.3 433 866.7 415 883.3 406L900 397L900 161L883.3 157C866.7 153 833.3 145 800 149C766.7 153 733.3 169 700 193C666.7 217 633.3 249 600 269C566.7 289 533.3 297 500 277C466.7 257 433.3 209 400 173C366.7 137 333.3 113 300 131C266.7 149 233.3 209 200 243C166.7 277 133.3 285 100 280C66.7 275 33.3 257 16.7 248L0 239Z" fill="#ffffff"></path><path d="M0 469L16.7 468C33.3 467 66.7 465 100 465C133.3 465 166.7 467 200 455C233.3 443 266.7 417 300 408C333.3 399 366.7 407 400 418C433.3 429 466.7 443 500 442C533.3 441 566.7 425 600 426C633.3 427 666.7 445 700 458C733.3 471 766.7 479 800 472C833.3 465 866.7 443 883.3 432L900 421L900 395L883.3 404C866.7 413 833.3 431 800 427C766.7 423 733.3 397 700 386C666.7 375 633.3 379 600 383C566.7 387 533.3 391 500 378C466.7 365 433.3 335 400 323C366.7 311 333.3 317 300 330C266.7 343 233.3 363 200 371C166.7 379 133.3 375 100 378C66.7 381 33.3 391 16.7 396L0 401Z" fill="#ffffff"></path><path d="M0 565L16.7 554C33.3 543 66.7 521 100 513C133.3 505 166.7 511 200 507C233.3 503 266.7 489 300 485C333.3 481 366.7 487 400 485C433.3 483 466.7 473 500 467C533.3 461 566.7 459 600 471C633.3 483 666.7 509 700 529C733.3 549 766.7 563 800 561C833.3 559 866.7 541 883.3 532L900 523L900 419L883.3 430C866.7 441 833.3 463 800 470C766.7 477 733.3 469 700 456C666.7 443 633.3 425 600 424C566.7 423 533.3 439 500 440C466.7 441 433.3 427 400 416C366.7 405 333.3 397 300 406C266.7 415 233.3 441 200 453C166.7 465 133.3 463 100 463C66.7 463 33.3 465 16.7 466L0 467Z" fill="#f5f2f7"></path><path d="M0 601L16.7 601C33.3 601 66.7 601 100 601C133.3 601 166.7 601 200 601C233.3 601 266.7 601 300 601C333.3 601 366.7 601 400 601C433.3 601 466.7 601 500 601C533.3 601 566.7 601 600 601C633.3 601 666.7 601 700 601C733.3 601 766.7 601 800 601C833.3 601 866.7 601 883.3 601L900 601L900 521L883.3 530C866.7 539 833.3 557 800 559C766.7 561 733.3 547 700 527C666.7 507 633.3 481 600 469C566.7 457 533.3 459 500 465C466.7 471 433.3 481 400 483C366.7 485 333.3 479 300 483C266.7 487 233.3 501 200 505C166.7 509 133.3 503 100 511C66.7 519 33.3 541 16.7 552L0 563Z" fill="#ebe5f0"></path></svg>