<svg id="visual" viewBox="0 0 900 150" width="900" height="150" xmlns="http://www.w3.org/2000/svg" xmlns:xlink="http://www.w3.org/1999/xlink" version="1.1"><path d="M0 7L12.5 14.3C25 21.7 50 36.3 75 43.3C100 50.3 125 49.7 150 45.8C175 42 200 35 225 32.8C250 30.7 275 33.3 300 42.2C325 51 350 66 375 70.7C400 75.3 425 69.7 450 58.2C475 46.7 500 29.3 525 30.2C550 31 575 50 600 52.2C625 54.3 650 39.7 675 41.7C700 43.7 725 62.3 750 65.7C775 69 800 57 825 57.2C850 57.3 875 69.7 887.5 75.8L900 82L900 0L887.5 0C875 0 850 0 825 0C800 0 775 0 750 0C725 0 700 0 675 0C650 0 625 0 600 0C575 0 550 0 525 0C500 0 475 0 450 0C425 0 400 0 375 0C350 0 325 0 300 0C275 0 250 0 225 0C200 0 175 0 150 0C125 0 100 0 75 0C50 0 25 0 12.5 0L0 0Z" fill="#ffffff"></path><path d="M0 18L12.5 24C25 30 50 42 75 52C100 62 125 70 150 66.7C175 63.3 200 48.7 225 44.7C250 40.7 275 47.3 300 58.8C325 70.3 350 86.7 375 92.3C400 98 425 93 450 79.5C475 66 500 44 525 41.5C550 39 575 56 600 61.8C625 67.7 650 62.3 675 68.3C700 74.3 725 91.7 750 90.2C775 88.7 800 68.3 825 66.3C850 64.3 875 80.7 887.5 88.8L900 97L900 80L887.5 73.8C875 67.7 850 55.3 825 55.2C800 55 775 67 750 63.7C725 60.3 700 41.7 675 39.7C650 37.7 625 52.3 600 50.2C575 48 550 29 525 28.2C500 27.3 475 44.7 450 56.2C425 67.7 400 73.3 375 68.7C350 64 325 49 300 40.2C275 31.3 250 28.7 225 30.8C200 33 175 40 150 43.8C125 47.7 100 48.3 75 41.3C50 34.3 25 19.7 12.5 12.3L0 5Z" fill="#dee4f7"></path><path d="M0 46L12.5 52C25 58 50 70 75 80.3C100 90.7 125 99.3 150 93.3C175 87.3 200 66.7 225 63.3C250 60 275 74 300 87.5C325 101 350 114 375 118.8C400 123.7 425 120.3 450 108.7C475 97 500 77 525 73C550 69 575 81 600 83C625 85 650 77 675 81C700 85 725 101 750 101C775 101 800 85 825 85.2C850 85.3 875 101.7 887.5 109.8L900 118L900 95L887.5 86.8C875 78.7 850 62.3 825 64.3C800 66.3 775 86.7 750 88.2C725 89.7 700 72.3 675 66.3C650 60.3 625 65.7 600 59.8C575 54 550 37 525 39.5C500 42 475 64 450 77.5C425 91 400 96 375 90.3C350 84.7 325 68.3 300 56.8C275 45.3 250 38.7 225 42.7C200 46.7 175 61.3 150 64.7C125 68 100 60 75 50C50 40 25 28 12.5 22L0 16Z" fill="#bdc9ef"></path><path d="M0 84L12.5 86.7C25 89.3 50 94.7 75 102.7C100 110.7 125 121.3 150 120.2C175 119 200 106 225 101.7C250 97.3 275 101.7 300 108.7C325 115.7 350 125.3 375 129.2C400 133 425 131 450 124.2C475 117.3 500 105.7 525 107.3C550 109 575 124 600 122.7C625 121.3 650 103.7 675 102.5C700 101.3 725 116.7 750 117.5C775 118.3 800 104.7 825 104.3C850 104 875 117 887.5 123.5L900 130L900 116L887.5 107.8C875 99.7 850 83.3 825 83.2C800 83 775 99 750 99C725 99 700 83 675 79C650 75 625 83 600 81C575 79 550 67 525 71C500 75 475 95 450 106.7C425 118.3 400 121.7 375 116.8C350 112 325 99 300 85.5C275 72 250 58 225 61.3C200 64.7 175 85.3 150 91.3C125 97.3 100 88.7 75 78.3C50 68 25 56 12.5 50L0 44Z" fill="#9bb0e7"></path><path d="M0 151L12.5 151C25 151 50 151 75 151C100 151 125 151 150 151C175 151 200 151 225 151C250 151 275 151 300 151C325 151 350 151 375 151C400 151 425 151 450 151C475 151 500 151 525 151C550 151 575 151 600 151C625 151 650 151 675 151C700 151 725 151 750 151C775 151 800 151 825 151C850 151 875 151 887.5 151L900 151L900 128L887.5 121.5C875 115 850 102 825 102.3C800 102.7 775 116.3 750 115.5C725 114.7 700 99.3 675 100.5C650 101.7 625 119.3 600 120.7C575 122 550 107 525 105.3C500 103.7 475 115.3 450 122.2C425 129 400 131 375 127.2C350 123.3 325 113.7 300 106.7C275 99.7 250 95.3 225 99.7C200 104 175 117 150 118.2C125 119.3 100 108.7 75 100.7C50 92.7 25 87.3 12.5 84.7L0 82Z" fill="#7597de"></path></svg>