<svg id="visual" viewBox="0 0 900 250" width="900" height="250" xmlns="http://www.w3.org/2000/svg" xmlns:xlink="http://www.w3.org/1999/xlink" version="1.1"><path d="M0 26L10.7 24C21.3 22 42.7 18 64.2 16C85.7 14 107.3 14 128.8 14.3C150.3 14.7 171.7 15.3 193 16.2C214.3 17 235.7 18 257 19.7C278.3 21.3 299.7 23.7 321.2 23.7C342.7 23.7 364.3 21.3 385.8 19.3C407.3 17.3 428.7 15.7 450 14.3C471.3 13 492.7 12 514.2 12C535.7 12 557.3 13 578.8 13.8C600.3 14.7 621.7 15.3 643 16.2C664.3 17 685.7 18 707 17.2C728.3 16.3 749.7 13.7 771.2 14C792.7 14.3 814.3 17.7 835.8 20.2C857.3 22.7 878.7 24.3 889.3 25.2L900 26L900 0L889.3 0C878.7 0 857.3 0 835.8 0C814.3 0 792.7 0 771.2 0C749.7 0 728.3 0 707 0C685.7 0 664.3 0 643 0C621.7 0 600.3 0 578.8 0C557.3 0 535.7 0 514.2 0C492.7 0 471.3 0 450 0C428.7 0 407.3 0 385.8 0C364.3 0 342.7 0 321.2 0C299.7 0 278.3 0 257 0C235.7 0 214.3 0 193 0C171.7 0 150.3 0 128.8 0C107.3 0 85.7 0 64.2 0C42.7 0 21.3 0 10.7 0L0 0Z" fill="#ffffff"></path><path d="M0 56L10.7 54.3C21.3 52.7 42.7 49.3 64.2 48.5C85.7 47.7 107.3 49.3 128.8 49.3C150.3 49.3 171.7 47.7 193 44.8C214.3 42 235.7 38 257 38C278.3 38 299.7 42 321.2 41.2C342.7 40.3 364.3 34.7 385.8 33.5C407.3 32.3 428.7 35.7 450 35.2C471.3 34.7 492.7 30.3 514.2 29.5C535.7 28.7 557.3 31.3 578.8 31.8C600.3 32.3 621.7 30.7 643 34.3C664.3 38 685.7 47 707 50.7C728.3 54.3 749.7 52.7 771.2 49.8C792.7 47 814.3 43 835.8 42.7C857.3 42.3 878.7 45.7 889.3 47.3L900 49L900 24L889.3 23.2C878.7 22.3 857.3 20.7 835.8 18.2C814.3 15.7 792.7 12.3 771.2 12C749.7 11.7 728.3 14.3 707 15.2C685.7 16 664.3 15 643 14.2C621.7 13.3 600.3 12.7 578.8 11.8C557.3 11 535.7 10 514.2 10C492.7 10 471.3 11 450 12.3C428.7 13.7 407.3 15.3 385.8 17.3C364.3 19.3 342.7 21.7 321.2 21.7C299.7 21.7 278.3 19.3 257 17.7C235.7 16 214.3 15 193 14.2C171.7 13.3 150.3 12.7 128.8 12.3C107.3 12 85.7 12 64.2 14C42.7 16 21.3 20 10.7 22L0 24Z" fill="#f4f6fc"></path><path d="M0 96L10.7 94.3C21.3 92.7 42.7 89.3 64.2 86.8C85.7 84.3 107.3 82.7 128.8 79.3C150.3 76 171.7 71 193 73.5C214.3 76 235.7 86 257 91.8C278.3 97.7 299.7 99.3 321.2 94C342.7 88.7 364.3 76.3 385.8 73.5C407.3 70.7 428.7 77.3 450 79.8C471.3 82.3 492.7 80.7 514.2 78.5C535.7 76.3 557.3 73.7 578.8 74C600.3 74.3 621.7 77.7 643 78.5C664.3 79.3 685.7 77.7 707 81.8C728.3 86 749.7 96 771.2 95.7C792.7 95.3 814.3 84.7 835.8 80.2C857.3 75.7 878.7 77.3 889.3 78.2L900 79L900 47L889.3 45.3C878.7 43.7 857.3 40.3 835.8 40.7C814.3 41 792.7 45 771.2 47.8C749.7 50.7 728.3 52.3 707 48.7C685.7 45 664.3 36 643 32.3C621.7 28.7 600.3 30.3 578.8 29.8C557.3 29.3 535.7 26.7 514.2 27.5C492.7 28.3 471.3 32.7 450 33.2C428.7 33.7 407.3 30.3 385.8 31.5C364.3 32.7 342.7 38.3 321.2 39.2C299.7 40 278.3 36 257 36C235.7 36 214.3 40 193 42.8C171.7 45.7 150.3 47.3 128.8 47.3C107.3 47.3 85.7 45.7 64.2 46.5C42.7 47.3 21.3 50.7 10.7 52.3L0 54Z" fill="#e8edf9"></path><path d="M0 151L10.7 145.7C21.3 140.3 42.7 129.7 64.2 132.7C85.7 135.7 107.3 152.3 128.8 147.3C150.3 142.3 171.7 115.7 193 110.7C214.3 105.7 235.7 122.3 257 133.5C278.3 144.7 299.7 150.3 321.2 147.3C342.7 144.3 364.3 132.7 385.8 126.8C407.3 121 428.7 121 450 124C471.3 127 492.7 133 514.2 134.7C535.7 136.3 557.3 133.7 578.8 132.3C600.3 131 621.7 131 643 126C664.3 121 685.7 111 707 116.5C728.3 122 749.7 143 771.2 153C792.7 163 814.3 162 835.8 156.5C857.3 151 878.7 141 889.3 136L900 131L900 77L889.3 76.2C878.7 75.3 857.3 73.7 835.8 78.2C814.3 82.7 792.7 93.3 771.2 93.7C749.7 94 728.3 84 707 79.8C685.7 75.7 664.3 77.3 643 76.5C621.7 75.7 600.3 72.3 578.8 72C557.3 71.7 535.7 74.3 514.2 76.5C492.7 78.7 471.3 80.3 450 77.8C428.7 75.3 407.3 68.7 385.8 71.5C364.3 74.3 342.7 86.7 321.2 92C299.7 97.3 278.3 95.7 257 89.8C235.7 84 214.3 74 193 71.5C171.7 69 150.3 74 128.8 77.3C107.3 80.7 85.7 82.3 64.2 84.8C42.7 87.3 21.3 90.7 10.7 92.3L0 94Z" fill="#dee6f7"></path><path d="M0 189L10.7 189.8C21.3 190.7 42.7 192.3 64.2 194.3C85.7 196.3 107.3 198.7 128.8 197C150.3 195.3 171.7 189.7 193 190.2C214.3 190.7 235.7 197.3 257 199.8C278.3 202.3 299.7 200.7 321.2 197.3C342.7 194 364.3 189 385.8 184.8C407.3 180.7 428.7 177.3 450 176.5C471.3 175.7 492.7 177.3 514.2 182.7C535.7 188 557.3 197 578.8 197.8C600.3 198.7 621.7 191.3 643 187.7C664.3 184 685.7 184 707 186C728.3 188 749.7 192 771.2 194.5C792.7 197 814.3 198 835.8 197.2C857.3 196.3 878.7 193.7 889.3 192.3L900 191L900 129L889.3 134C878.7 139 857.3 149 835.8 154.5C814.3 160 792.7 161 771.2 151C749.7 141 728.3 120 707 114.5C685.7 109 664.3 119 643 124C621.7 129 600.3 129 578.8 130.3C557.3 131.7 535.7 134.3 514.2 132.7C492.7 131 471.3 125 450 122C428.7 119 407.3 119 385.8 124.8C364.3 130.7 342.7 142.3 321.2 145.3C299.7 148.3 278.3 142.7 257 131.5C235.7 120.3 214.3 103.7 193 108.7C171.7 113.7 150.3 140.3 128.8 145.3C107.3 150.3 85.7 133.7 64.2 130.7C42.7 127.7 21.3 138.3 10.7 143.7L0 149Z" fill="#dee6f7"></path><path d="M0 219L10.7 218.5C21.3 218 42.7 217 64.2 216.2C85.7 215.3 107.3 214.7 128.8 213.5C150.3 212.3 171.7 210.7 193 211.8C214.3 213 235.7 217 257 217.8C278.3 218.7 299.7 216.3 321.2 216C342.7 215.7 364.3 217.3 385.8 217.3C407.3 217.3 428.7 215.7 450 215.2C471.3 214.7 492.7 215.3 514.2 217C535.7 218.7 557.3 221.3 578.8 222.2C600.3 223 621.7 222 643 221.2C664.3 220.3 685.7 219.7 707 220.5C728.3 221.3 749.7 223.7 771.2 222.8C792.7 222 814.3 218 835.8 219.3C857.3 220.7 878.7 227.3 889.3 230.7L900 234L900 189L889.3 190.3C878.7 191.7 857.3 194.3 835.8 195.2C814.3 196 792.7 195 771.2 192.5C749.7 190 728.3 186 707 184C685.7 182 664.3 182 643 185.7C621.7 189.3 600.3 196.7 578.8 195.8C557.3 195 535.7 186 514.2 180.7C492.7 175.3 471.3 173.7 450 174.5C428.7 175.3 407.3 178.7 385.8 182.8C364.3 187 342.7 192 321.2 195.3C299.7 198.7 278.3 200.3 257 197.8C235.7 195.3 214.3 188.7 193 188.2C171.7 187.7 150.3 193.3 128.8 195C107.3 196.7 85.7 194.3 64.2 192.3C42.7 190.3 21.3 188.7 10.7 187.8L0 187Z" fill="#e8edf9"></path><path d="M0 231L10.7 233.2C21.3 235.3 42.7 239.7 64.2 239.3C85.7 239 107.3 234 128.8 232.7C150.3 231.3 171.7 233.7 193 236.2C214.3 238.7 235.7 241.3 257 240.5C278.3 239.7 299.7 235.3 321.2 232.3C342.7 229.3 364.3 227.7 385.8 229C407.3 230.3 428.7 234.7 450 236.3C471.3 238 492.7 237 514.2 237.3C535.7 237.7 557.3 239.3 578.8 239.8C600.3 240.3 621.7 239.7 643 238.5C664.3 237.3 685.7 235.7 707 235.2C728.3 234.7 749.7 235.3 771.2 234C792.7 232.7 814.3 229.3 835.8 230.2C857.3 231 878.7 236 889.3 238.5L900 241L900 232L889.3 228.7C878.7 225.3 857.3 218.7 835.8 217.3C814.3 216 792.7 220 771.2 220.8C749.7 221.7 728.3 219.3 707 218.5C685.7 217.7 664.3 218.3 643 219.2C621.7 220 600.3 221 578.8 220.2C557.3 219.3 535.7 216.7 514.2 215C492.7 213.3 471.3 212.7 450 213.2C428.7 213.7 407.3 215.3 385.8 215.3C364.3 215.3 342.7 213.7 321.2 214C299.7 214.3 278.3 216.7 257 215.8C235.7 215 214.3 211 193 209.8C171.7 208.7 150.3 210.3 128.8 211.5C107.3 212.7 85.7 213.3 64.2 214.2C42.7 215 21.3 216 10.7 216.5L0 217Z" fill="#f4f6fc"></path><path d="M0 251L10.7 251C21.3 251 42.7 251 64.2 251C85.7 251 107.3 251 128.8 251C150.3 251 171.7 251 193 251C214.3 251 235.7 251 257 251C278.3 251 299.7 251 321.2 251C342.7 251 364.3 251 385.8 251C407.3 251 428.7 251 450 251C471.3 251 492.7 251 514.2 251C535.7 251 557.3 251 578.8 251C600.3 251 621.7 251 643 251C664.3 251 685.7 251 707 251C728.3 251 749.7 251 771.2 251C792.7 251 814.3 251 835.8 251C857.3 251 878.7 251 889.3 251L900 251L900 239L889.3 236.5C878.7 234 857.3 229 835.8 228.2C814.3 227.3 792.7 230.7 771.2 232C749.7 233.3 728.3 232.7 707 233.2C685.7 233.7 664.3 235.3 643 236.5C621.7 237.7 600.3 238.3 578.8 237.8C557.3 237.3 535.7 235.7 514.2 235.3C492.7 235 471.3 236 450 234.3C428.7 232.7 407.3 228.3 385.8 227C364.3 225.7 342.7 227.3 321.2 230.3C299.7 233.3 278.3 237.7 257 238.5C235.7 239.3 214.3 236.7 193 234.2C171.7 231.7 150.3 229.3 128.8 230.7C107.3 232 85.7 237 64.2 237.3C42.7 237.7 21.3 233.3 10.7 231.2L0 229Z" fill="#ffffff"></path></svg>